<svg version="1.1" id="el_E4V5PMLiUY" xmlns="http://www.w3.org/2000/svg" xmlns:xlink="http://www.w3.org/1999/xlink" x="0px" y="0px" viewBox="0 0 48 38" style="enable-background:new 0 0 48 38;" xml:space="preserve"><style>@-webkit-keyframes kf_el_-naCRHVZgLu_an_zEYug8QKm{0%{opacity: 0.4;}50%{opacity: 1;}100%{opacity: 0.5;}}@keyframes kf_el_-naCRHVZgLu_an_zEYug8QKm{0%{opacity: 0.4;}50%{opacity: 1;}100%{opacity: 0.5;}}@-webkit-keyframes kf_el_wUyQjxGvTn__an_F68hd75xH{0%{opacity: 1;}50%{opacity: 0.3;}100%{opacity: 1;}}@keyframes kf_el_wUyQjxGvTn__an_F68hd75xH{0%{opacity: 1;}50%{opacity: 0.3;}100%{opacity: 1;}}#el_E4V5PMLiUY *{-webkit-animation-duration: 3s;animation-duration: 3s;-webkit-animation-iteration-count: infinite;animation-iteration-count: infinite;-webkit-animation-timing-function: cubic-bezier(0, 0, 1, 1);animation-timing-function: cubic-bezier(0, 0, 1, 1);}#el_UjilgEA9Rg{fill-rule: evenodd;clip-rule: evenodd;fill: #FECA5F;}#el_q9R1HxpsVE{fill-rule: evenodd;clip-rule: evenodd;fill: #FECA5F;}#el_bROGEuSllh{fill-rule: evenodd;clip-rule: evenodd;fill: #FECA5F;}#el_T9RaSLkQ7wP{fill-rule: evenodd;clip-rule: evenodd;fill: #FECA5F;-webkit-transform: matrix(0.7072, -0.7071, 0.7071, 0.7072, -12.5449, 9.7659);transform: matrix(0.7072, -0.7071, 0.7071, 0.7072, -12.5449, 9.7659);}#el_OVGdG8mi7pO{fill-rule: evenodd;clip-rule: evenodd;fill: #FECA5F;-webkit-transform: matrix(0.7071, -0.7071, 0.7071, 0.7071, -2.6431, 5.6652);transform: matrix(0.7071, -0.7071, 0.7071, 0.7071, -2.6431, 5.6652);}#el_y-Y1P2XYX0n{fill-rule: evenodd;clip-rule: evenodd;fill: #FECA5F;}#el_jIUVxRD1OiW{fill-rule: evenodd;clip-rule: evenodd;fill: #FECA5F;-webkit-transform: matrix(0.7071, -0.7071, 0.7071, 0.7071, 1.4578, 15.5674);transform: matrix(0.7071, -0.7071, 0.7071, 0.7071, 1.4578, 15.5674);}#el_wUyQjxGvTn_{fill-rule: evenodd;clip-rule: evenodd;fill: #D7D7D7;-webkit-animation-fill-mode: none;animation-fill-mode: none;-webkit-animation-name: kf_el_wUyQjxGvTn__an_F68hd75xH;animation-name: kf_el_wUyQjxGvTn__an_F68hd75xH;-webkit-animation-timing-function: cubic-bezier(0, 0, 1, 1);animation-timing-function: cubic-bezier(0, 0, 1, 1);}#el_-naCRHVZgLu{fill-rule: evenodd;clip-rule: evenodd;fill: #D7D7D7;-webkit-animation-fill-mode: none;animation-fill-mode: none;-webkit-animation-name: kf_el_-naCRHVZgLu_an_zEYug8QKm;animation-name: kf_el_-naCRHVZgLu_an_zEYug8QKm;-webkit-animation-timing-function: cubic-bezier(0, 0, 1, 1);animation-timing-function: cubic-bezier(0, 0, 1, 1);}</style>

<g id="el_qmd__58eWI">
	<path id="el_UjilgEA9Rg" d="M12.3,8.2c2.8,0,5.1,2.3,5.1,5.1c0,1.1-0.4,2.1-1,3l0,0c-1.7,0-3.3,0.5-4.7,1.4&#10;&#9;&#9;c-2.3,1.4-4.4-2.3-4.4-4.3C7.3,10.4,9.5,8.2,12.3,8.2L12.3,8.2z"/>
	<g id="el_tNzORWlcmR">
		<rect x="11.5" y="0.5" width="2.1" height="5.2" id="el_q9R1HxpsVE"/>
		<rect x="0" y="12" width="5.2" height="2.1" id="el_bROGEuSllh"/>
		<rect x="2.9" y="19" width="5.2" height="2.1" id="el_T9RaSLkQ7wP"/>
		<rect x="4.5" y="3.4" width="2.1" height="5.2" id="el_OVGdG8mi7pO"/>
		<path d="M19.8,12v2.1h2.6c0.8-0.5,1.7-0.8,2.6-1V12H19.8z" id="el_y-Y1P2XYX0n"/>
		<rect x="16.9" y="5" width="5.2" height="2.1" id="el_jIUVxRD1OiW"/>
	</g>
</g>
<path d="M46,35.1c1.2-1.2,2-3,2-4.8c0-1.1-0.3-2.2-0.8-3.1c-0.5-1-1.3-1.8-2.2-2.4l-0.4-0.6c-0.4-1.6-1.4-2.9-2.7-3.9&#10;&#9;c-1.3-0.9-2.8-1.5-4.6-1.5c-1.4,0-2.8,0.4-3.9,1.1c-1.2,0.7-2.1,1.7-2.8,2.9l-0.5,1l-1-0.6c-0.4-0.3-0.9-0.5-1.4-0.6&#10;&#9;c-0.5-0.1-1-0.2-1.5-0.2c-1.3,0-2.5,0.5-3.4,1.2c-0.9,0.8-1.5,1.9-1.6,3.1l-0.1,1.1l-1.1-0.2c-0.1,0-0.3,0-0.4,0c-0.1,0-0.3,0-0.4,0&#10;&#9;c-1.4,0-2.7,0.5-3.6,1.4c-0.9,0.9-1.5,2.1-1.5,3.4c0,1.3,0.5,2.4,1.3,3.3c0.8,0.9,2,1.4,3.3,1.5c0.2,0,0.4,0,0.6,0&#10;&#9;c6.7,0,14.7,0,21.8,0C43.1,37,44.8,36.3,46,35.1L46,35.1z" id="el_wUyQjxGvTn_"/>
<path d="M31.5,17.2c-0.2-0.1-0.4-0.2-0.7-0.3c-1-0.4-2.1-0.7-3.2-0.7c-1.5,0-2.9,0.4-4,1.1c-1.2,0.7-2.2,1.8-2.8,3&#10;&#9;l-0.5,1l-1-0.6c-0.4-0.3-0.9-0.5-1.4-0.7c-0.5-0.1-1-0.2-1.5-0.2c-1.3,0-2.5,0.5-3.5,1.3c-0.9,0.8-1.5,1.9-1.7,3.2l-0.1,1.1&#10;&#9;l-1.1-0.2c-0.1,0-0.3,0-0.4,0c-0.1,0-0.3,0-0.4,0c-1.4,0-2.7,0.6-3.6,1.5c-0.9,0.9-1.5,2.1-1.5,3.5c0,1.2,0.4,2.2,1.1,3.1&#10;&#9;C5.9,34,7,34.6,8.1,34.9l0,0C8.7,35,9.2,35,9.9,35c0.4,0-0.2,0,0.3,0h1.4c-0.3-0.9-0.5-1.8-0.5-2.7c0-2.1,0.9-4.2,2.4-5.6&#10;&#9;c1.4-1.3,3.2-2.1,5.1-2.3c0.5-1.2,1.2-2.3,2.2-3.2c1.5-1.3,3.4-2,5.4-2c0.8,0,1.6,0.1,2.4,0.4c0.1,0,0.2,0.1,0.3,0.1&#10;&#9;C29.7,18.6,30.6,17.9,31.5,17.2L31.5,17.2z" id="el_-naCRHVZgLu"/>
</svg>