<?xml version="1.0" encoding="UTF-8"?>
<svg width="417px" height="398px" viewBox="0 0 417 398" version="1.1" xmlns="http://www.w3.org/2000/svg" xmlns:xlink="http://www.w3.org/1999/xlink">
    <!-- Generator: Sketch 55.2 (78181) - https://sketchapp.com -->
    <title>krone-logo</title>
    <desc>Created with Sketch.</desc>
    <g id="Krone-Logo" stroke="none" stroke-width="1" fill="none" fill-rule="evenodd">
        <g id="krone-logo">
            <polygon id="Fill-1" fill="#E3000F" points="0 397.219 416.26 397.219 416.26 0 0 0"></polygon>
            <g id="Group-6" transform="translate(24.000000, 55.752000)" fill="#FFFFFF">
                <path d="M67.8988,117.0316 L51.7168,53.5996 L66.2808,0.5226 L40.3898,0.5226 L28.4158,55.3796 L42.1698,117.0316 L67.8988,117.0316 Z M2.3628,117.0316 L28.2538,117.0316 L28.2538,0.5226 L2.3628,0.5226 L2.3628,117.0316 Z M94.5968,117.0316 L94.5968,59.1016 C97.0238,57.1586 100.4218,56.5116 102.3648,56.5116 C104.4678,56.5116 106.4098,56.8356 107.7038,57.3206 L109.8078,28.0326 C108.1898,27.0616 106.0858,26.7376 104.1438,26.7376 C97.9948,26.7376 92.4928,31.1066 91.0378,41.6246 L90.3898,41.6246 L89.9048,28.0326 L70.9708,28.0326 L70.9708,117.0316 L94.5968,117.0316 Z M171.1358,54.8936 C171.1358,36.9316 160.2948,26.4136 142.0098,26.4136 C123.7238,26.4136 112.8818,36.9316 112.8818,54.8936 L112.8818,90.1706 C112.8818,108.1326 123.7238,118.6506 142.0098,118.6506 C160.2948,118.6506 171.1358,108.1326 171.1358,90.1706 L171.1358,54.8936 Z M146.8638,94.3776 C146.8638,98.5846 146.0548,100.8496 142.0098,100.8496 C137.9638,100.8496 137.1548,98.5846 137.1548,94.3776 L137.1548,50.6866 C137.1548,46.4796 137.9638,44.2136 142.0098,44.2136 C146.0548,44.2136 146.8638,46.4796 146.8638,50.6866 L146.8638,94.3776 Z M236.5088,117.0316 L236.5088,50.0396 C236.5088,35.7996 230.1988,26.4136 219.1948,26.4136 C211.1038,26.4136 206.2498,30.9446 202.5278,39.5206 L201.8788,28.0326 L178.2548,28.0326 L178.2548,117.0316 L202.5278,117.0316 L202.5278,50.0396 C205.2778,48.0966 207.0578,47.1266 208.5148,47.1266 C211.1038,47.1266 212.2358,48.9066 212.2358,53.5996 L212.2358,117.0316 L236.5088,117.0316 Z M301.8818,76.7386 L301.8818,56.8356 C301.8818,38.2266 293.3048,26.4136 273.0788,26.4136 C254.1458,26.4136 243.6278,36.6076 243.6278,55.2176 L243.6278,89.8466 C243.6278,108.4556 254.1458,118.6506 273.0788,118.6506 C293.3048,118.6506 301.8818,106.8376 301.8818,88.2276 L301.8818,84.6676 L278.0948,84.6676 L278.0948,93.7296 C278.0948,99.3926 276.4758,100.6876 272.9168,100.6876 C269.1938,100.6876 267.5768,98.9076 267.5768,93.8916 L267.5768,76.7386 L301.8818,76.7386 Z M278.2568,62.4996 L267.4148,62.4996 L267.4148,51.3346 C267.4148,46.3176 269.3558,44.0526 272.9168,44.0526 C276.4758,44.0526 278.2568,46.1556 278.2568,51.6576 L278.2568,62.4996 Z M367.2538,117.0316 L367.2538,50.0396 C367.2538,35.7996 360.9428,26.4136 349.9398,26.4136 C341.8488,26.4136 336.9948,30.9446 333.2718,39.5206 L332.6258,28.0326 L309.0008,28.0326 L309.0008,117.0316 L333.2718,117.0316 L333.2718,50.0396 C336.0238,48.0966 337.8028,47.1266 339.2588,47.1266 C341.8488,47.1266 342.9818,48.9066 342.9818,53.5996 L342.9818,117.0316 L367.2538,117.0316 Z" id="Fill-2"></path>
                <path d="M52.332,257.1293 L52.332,237.2063 L29.804,237.2063 L53.712,147.4003 L53.712,146.7863 L2.218,146.7863 L2.218,166.7093 L23.827,166.7093 L0.686,256.5173 L0.686,257.1293 L52.332,257.1293 Z M112.878,218.9693 L112.878,200.1193 C112.878,182.4953 104.756,171.3083 85.6,171.3083 C67.668,171.3083 57.707,180.9623 57.707,198.5863 L57.707,231.3823 C57.707,249.0073 67.668,258.6623 85.6,258.6623 C104.756,258.6623 112.878,247.4753 112.878,229.8513 L112.878,226.4793 L90.35,226.4793 L90.35,235.0613 C90.35,240.4253 88.818,241.6503 85.446,241.6503 C81.921,241.6503 80.389,239.9653 80.389,235.2143 L80.389,218.9693 L112.878,218.9693 Z M90.503,205.4833 L80.235,205.4833 L80.235,194.9083 C80.235,190.1573 82.075,188.0123 85.446,188.0123 C88.818,188.0123 90.503,190.0043 90.503,195.2143 L90.503,205.4833 Z M144.308,152.3043 C144.308,145.4073 138.33,139.8903 131.128,139.8903 C123.925,139.8903 117.795,145.4073 117.795,152.3043 C117.795,159.0463 123.925,164.8703 131.128,164.8703 C138.33,164.8703 144.308,159.0463 144.308,152.3043 L144.308,152.3043 Z M119.634,257.1293 L142.622,257.1293 L142.622,172.8403 L119.634,172.8403 L119.634,257.1293 Z M184.32,237.8193 C182.94,239.0453 180.948,240.1183 178.649,240.1183 C175.737,240.1183 174.051,238.5853 174.051,233.8353 L174.051,189.6973 L183.553,189.6973 L183.553,172.8403 L174.051,172.8403 L174.051,153.8363 L153.208,153.8363 L151.677,172.8403 L146.619,172.8403 L146.619,189.6973 L151.37,189.6973 L151.37,238.1263 C151.37,250.9993 157.807,258.6623 169.76,258.6623 C175.584,258.6623 181.407,257.2823 184.32,255.5973 L184.32,237.8193 Z M243.489,257.1293 L243.489,172.8403 L220.5,172.8403 L220.5,236.2873 C217.894,238.1263 216.208,239.0453 214.83,239.0453 C212.377,239.0453 211.305,237.3603 211.305,232.9153 L211.305,172.8403 L188.317,172.8403 L188.317,236.2873 C188.317,249.7743 194.293,258.6623 204.714,258.6623 C212.377,258.6623 216.975,254.3713 220.5,246.2483 L221.113,257.1293 L243.489,257.1293 Z M305.415,257.1293 L305.415,193.6833 C305.415,180.1953 299.437,171.3083 289.016,171.3083 C281.354,171.3083 276.755,175.5983 273.231,183.7203 L272.618,172.8403 L250.243,172.8403 L250.243,257.1293 L273.231,257.1293 L273.231,193.6833 C275.836,191.8443 277.523,190.9243 278.901,190.9243 C281.354,190.9243 282.426,192.6093 282.426,197.0543 L282.426,257.1293 L305.415,257.1293 Z M344.353,248.7013 C344.353,257.1293 341.134,260.9613 333.778,260.9613 C327.189,260.9613 321.978,258.8163 317.533,255.9033 L312.016,271.3833 C317.687,274.9063 325.962,277.0533 334.391,277.0533 C355.54,277.0533 367.035,263.2593 367.035,242.7233 L367.035,172.8403 L345.119,172.8403 L344.353,179.7353 C340.828,175.1393 336.69,171.3083 329.028,171.3083 C319.065,171.3083 312.169,178.9703 312.169,191.9963 L312.169,231.0763 C312.169,244.1033 319.065,251.7663 328.26,251.7663 C336.69,251.7663 340.061,247.9343 344.353,243.3373 L344.353,248.7013 Z M344.353,234.2953 C342.82,235.2143 341.441,235.6743 340.061,235.6743 C336.997,235.6743 335.158,233.6823 335.158,228.7773 L335.158,194.2953 C335.158,189.3913 336.997,187.3993 340.061,187.3993 C341.441,187.3993 342.82,187.8583 344.353,188.7783 L344.353,234.2953 Z" id="Fill-4"></path>
            </g>
        </g>
    </g>
</svg>